 <svg width="129" height="35" version="1.1" viewBox="0 0 34.131 9.2604" xml:space="preserve"
        xmlns="http://www.w3.org/2000/svg">
        <g fill="#858585" stroke="#858585" stroke-width=".1" aria-label="ECONOMICS">
          <path d="m1.3315 8.5517v-3.7879h2.8086v0.64079h-2.0438v0.83974h1.9017v0.6382h-1.9017v1.0309h2.1162v0.6382z">
          </path>
          <path
            d="m7.2846 7.1591 0.74156 0.23513q-0.17053 0.62012-0.56844 0.92242-0.39532 0.29972-1.0051 0.29972-0.75448 0-1.2402-0.51418-0.48576-0.51676-0.48576-1.4108 0-0.94568 0.48834-1.4676 0.48834-0.52452 1.2842-0.52452 0.69505 0 1.1291 0.41083 0.25838 0.24288 0.38757 0.69763l-0.75706 0.18087q-0.067179-0.29456-0.28164-0.46509-0.21187-0.17053-0.51676-0.17053-0.42116 0-0.68471 0.30231-0.26097 0.30231-0.26097 0.97927 0 0.7183 0.25838 1.0232 0.25838 0.30489 0.67179 0.30489 0.30489 0 0.52452-0.19379 0.21962-0.19379 0.31523-0.60978z">
          </path>
          <path
            d="m8.5275 6.681q0-0.57878 0.17312-0.97152 0.12919-0.28939 0.3514-0.51935 0.22479-0.22996 0.49093-0.34106 0.35398-0.14986 0.81649-0.14986 0.83716 0 1.3384 0.51935 0.50385 0.51935 0.50385 1.4444 0 0.91726-0.49868 1.4366-0.49868 0.51676-1.3333 0.51676-0.84491 0-1.3436-0.51418-0.49868-0.51676-0.49868-1.4211zm0.78807-0.025838q0 0.64337 0.29714 0.97669 0.29714 0.33073 0.75448 0.33073 0.45734 0 0.74931-0.32815 0.29456-0.33073 0.29456-0.9896 0-0.65112-0.2868-0.97152-0.28422-0.32039-0.75706-0.32039-0.47284 0-0.76223 0.32556-0.28939 0.32298-0.28939 0.97669z">
          </path>
          <path d="m12.806 8.5517v-3.7879h0.74414l1.5503 2.5296v-2.5296h0.71055v3.7879h-0.7674l-1.527-2.4701v2.4701z">
          </path>
          <path
            d="m16.465 6.681q0-0.57878 0.17312-0.97152 0.12919-0.28939 0.3514-0.51935 0.22479-0.22996 0.49093-0.34106 0.35398-0.14986 0.81649-0.14986 0.83716 0 1.3384 0.51935 0.50384 0.51935 0.50384 1.4444 0 0.91726-0.49868 1.4366-0.49868 0.51676-1.3333 0.51676-0.84491 0-1.3436-0.51418-0.49868-0.51676-0.49868-1.4211zm0.78807-0.025838q0 0.64337 0.29714 0.97669 0.29714 0.33073 0.75448 0.33073t0.74931-0.32815q0.29456-0.33073 0.29456-0.9896 0-0.65112-0.2868-0.97152-0.28422-0.32039-0.75706-0.32039t-0.76223 0.32556q-0.28939 0.32298-0.28939 0.97669z">
          </path>
          <path
            d="m20.726 8.5517v-3.7879h1.1446l0.6873 2.5838 0.67955-2.5838h1.1472v3.7879h-0.71055v-2.9817l-0.75189 2.9817h-0.73639l-0.74931-2.9817v2.9817z">
          </path>
          <path d="m25.121 8.5517v-3.7879h0.76481v3.7879z"></path>
          <path
            d="m29.038 7.1591 0.74156 0.23513q-0.17053 0.62012-0.56844 0.92242-0.39532 0.29972-1.0051 0.29972-0.75448 0-1.2402-0.51418-0.48576-0.51676-0.48576-1.4108 0-0.94568 0.48834-1.4676 0.48834-0.52452 1.2842-0.52452 0.69505 0 1.1291 0.41083 0.25838 0.24288 0.38757 0.69763l-0.75706 0.18087q-0.06718-0.29456-0.28164-0.46509-0.21187-0.17053-0.51676-0.17053-0.42116 0-0.68471 0.30231-0.26097 0.30231-0.26097 0.97927 0 0.7183 0.25838 1.0232 0.25838 0.30489 0.67179 0.30489 0.30489 0 0.52452-0.19379 0.21962-0.19379 0.31523-0.60978z">
          </path>
          <path
            d="m30.242 7.3193 0.74414-0.072347q0.06718 0.37465 0.2713 0.55035 0.2067 0.1757 0.55552 0.1757 0.36949 0 0.55552-0.15503 0.18862-0.15761 0.18862-0.3669 0-0.13436-0.0801-0.22738-0.077514-0.095602-0.27388-0.16536-0.13436-0.046509-0.61237-0.16536-0.61495-0.15245-0.863-0.37465-0.34882-0.31264-0.34882-0.76223 0-0.28939 0.16278-0.54002 0.16536-0.25321 0.47284-0.38499 0.31006-0.13178 0.74672-0.13178 0.71314 0 1.0723 0.31264 0.36174 0.31264 0.37982 0.83457l-0.76481 0.03359q-0.04909-0.29197-0.21187-0.41858-0.1602-0.12919-0.48317-0.12919-0.33331 0-0.52193 0.13694-0.12144 0.08785-0.12144 0.23513 0 0.13436 0.11369 0.22996 0.14469 0.12144 0.7028 0.25321t0.82424 0.27389q0.26872 0.13953 0.41858 0.38499 0.15244 0.24288 0.15244 0.60203 0 0.32556-0.18087 0.60978-0.18087 0.28422-0.5116 0.42375-0.33073 0.13694-0.82424 0.13694-0.7183 0-1.1033-0.33073-0.38499-0.33331-0.45992-0.96893z">
          </path>
        </g>
        <g fill="#ddd" stroke="#ddd" stroke-width=".1" aria-label="TRADING">
          <path d="m1.4629 4.2437v-2.8324h-1.0116v-0.57671h2.7091v0.57671h-1.0092v2.8324z"></path>
          <path
            d="m3.607 4.2437v-3.4091h1.4487q0.54648 0 0.79297 0.093018 0.24882 0.090692 0.39765 0.32556 0.14883 0.23487 0.14883 0.53718 0 0.3837-0.22557 0.63484-0.22557 0.24882-0.67438 0.31393 0.22324 0.13022 0.36742 0.28603 0.1465 0.1558 0.393 0.55345l0.41625 0.66508h-0.82321l-0.49764-0.74182q-0.2651-0.39765-0.36277-0.49997-0.097668-0.10464-0.20696-0.14185-0.1093-0.039532-0.34649-0.039532h-0.13953v1.4232zm0.68833-1.9673h0.50927q0.49532 0 0.61857-0.041858t0.19301-0.14418q0.069763-0.10232 0.069763-0.2558 0-0.17208-0.093018-0.27673-0.090692-0.10697-0.25812-0.13488-0.083716-0.011627-0.50229-0.011627h-0.53718z">
          </path>
          <path
            d="m10.118 4.2437h-0.74879l-0.29766-0.77437h-1.3627l-0.28138 0.77437h-0.73019l1.3278-3.4091h0.72786zm-1.2674-1.3488-0.46974-1.265-0.46044 1.265z">
          </path>
          <path
            d="m10.481 0.8346h1.2581q0.42556 0 0.6488 0.065112 0.29998 0.088367 0.51392 0.31393 0.21394 0.22557 0.32556 0.55345 0.11162 0.32556 0.11162 0.8046 0 0.4209-0.10464 0.72554-0.1279 0.37207-0.36509 0.60229-0.17906 0.17441-0.48369 0.27208-0.22789 0.072089-0.60926 0.072089h-1.2953zm0.68833 0.57671v2.258h0.51392q0.28835 0 0.41625-0.032556 0.16743-0.041858 0.27673-0.14185 0.11162-0.099994 0.18138-0.32789 0.06976-0.23022 0.06976-0.62554t-0.06976-0.60694-0.19534-0.33021q-0.12557-0.1186-0.31858-0.16046-0.14418-0.032556-0.56508-0.032556z">
          </path>
          <path d="m13.902 4.2437v-3.4091h0.68833v3.4091z"></path>
          <path d="m15.253 4.2437v-3.4091h0.66973l1.3953 2.2766v-2.2766h0.6395v3.4091h-0.69066l-1.3743-2.2231v2.2231z">
          </path>
          <path
            d="m20.271 2.9903v-0.57438h1.4836v1.3581q-0.21627 0.20929-0.62787 0.36974-0.40928 0.15813-0.83018 0.15813-0.53485 0-0.9325-0.22324-0.39765-0.22557-0.59764-0.64182-0.19999-0.41858-0.19999-0.90925 0-0.53253 0.22324-0.94645 0.22324-0.41393 0.65345-0.63484 0.32789-0.16976 0.81623-0.16976 0.63484 0 0.99064 0.26743 0.35812 0.2651 0.46044 0.73484l-0.68368 0.1279q-0.072088-0.25115-0.27208-0.39532-0.19766-0.1465-0.49532-0.1465-0.45114 0-0.71856 0.28603-0.2651 0.28603-0.2651 0.84879 0 0.60694 0.26975 0.91157 0.26975 0.30231 0.70693 0.30231 0.21627 0 0.43253-0.083716 0.21859-0.086041 0.3744-0.20696v-0.43253z">
          </path>
        </g>
      </svg>